<svg width="16" height="16" viewBox="0 0 16 16" fill="none" xmlns="http://www.w3.org/2000/svg">
<path fill-rule="evenodd" clip-rule="evenodd" d="M0.0137294 3.76441C0.0378751 3.55864 0.0932569 3.36242 0.175005 3.18063C0.273107 2.96246 0.409179 2.76507 0.574806 2.59685C0.937568 2.22843 1.44211 2 2 2H14C14.5579 2 15.0624 2.22843 15.4252 2.59685C15.5908 2.76506 15.7269 2.96246 15.825 3.18063C15.9067 3.36242 15.9621 3.55864 15.9863 3.76441C15.992 3.81359 15.996 3.86331 15.9982 3.91351C15.9994 3.94219 16 3.97102 16 4V12C16 13.1046 15.1046 14 14 14H2C0.895431 14 0 13.1046 0 12V4C0 3.97102 0.000616322 3.94219 0.00183657 3.91351C0.00397254 3.86331 0.00795897 3.81359 0.0137294 3.76441ZM14.5 5.64276V12C14.5 12.2761 14.2761 12.5 14 12.5H2C1.72386 12.5 1.5 12.2761 1.5 12V5.64276L6.67735 11.6187C7.37517 12.4242 8.62483 12.4242 9.32265 11.6187L14.5 5.64276ZM14.2909 3.59331L8.18895 10.6365C8.08926 10.7516 7.91074 10.7516 7.81105 10.6365L1.70907 3.59331C1.79103 3.53457 1.89148 3.5 2 3.5H14C14.1085 3.5 14.209 3.53457 14.2909 3.59331Z" fill="white"/>
</svg>
