<svg width="214" height="214" viewBox="0 0 214 214" fill="none" xmlns="http://www.w3.org/2000/svg">
<rect width="214" height="214" rx="16" fill="#E8F2EE"/>
<path d="M147.586 105.987L125.379 83.4733V69.7333C125.379 68.2128 124.784 66.7545 123.723 65.6793C122.662 64.604 121.224 64 119.724 64H71.6552C70.1553 64 68.7169 64.604 67.6564 65.6793C66.5958 66.7545 66 68.2128 66 69.7333V135.667C66 137.187 66.5958 138.646 67.6564 139.721C68.7169 140.796 70.1553 141.4 71.6552 141.4H115.587L114.101 148.259C114.056 148.468 114.057 148.685 114.106 148.894C114.154 149.103 114.248 149.298 114.38 149.465C114.513 149.632 114.681 149.767 114.872 149.859C115.062 149.952 115.271 150 115.483 150H140.931C141.276 150 141.608 149.872 141.866 149.641C142.125 149.41 142.291 149.091 142.334 148.744L143.688 137.767L147.586 133.813C147.851 133.545 148 133.18 148 132.8V107C148 106.62 147.851 106.255 147.586 105.987ZM71.6552 138.533C70.9053 138.533 70.186 138.231 69.6558 137.694C69.1255 137.156 68.8276 136.427 68.8276 135.667V69.7333C68.8276 68.973 69.1255 68.2439 69.6558 67.7063C70.186 67.1687 70.9053 66.8667 71.6552 66.8667H119.724C120.474 66.8667 121.193 67.1687 121.724 67.7063C122.254 68.2439 122.552 68.973 122.552 69.7333V107.84L115.654 100.847C114.858 100.041 113.78 99.5877 112.655 99.5877C111.531 99.5877 110.452 100.041 109.657 100.847L106.586 103.96C105.791 104.766 105.344 105.86 105.344 107C105.344 108.14 105.791 109.234 106.586 110.04L117.097 120.697C115.208 122.753 114.131 125.441 114.072 128.25C114.012 131.059 114.973 133.792 116.772 135.929L116.208 138.533H71.6552ZM145.172 132.207L141.345 136.087C141.123 136.312 140.981 136.606 140.942 136.922L139.683 147.133H117.24L119.692 135.81C119.742 135.577 119.734 135.335 119.669 135.106C119.604 134.876 119.483 134.667 119.318 134.497C118.494 133.645 117.854 132.628 117.439 131.511C117.025 130.394 116.845 129.201 116.912 128.01C116.978 126.818 117.29 125.654 117.826 124.591C118.362 123.529 119.111 122.591 120.025 121.839C120.179 121.713 120.305 121.555 120.395 121.376C120.485 121.197 120.536 121.001 120.547 120.8C120.557 120.6 120.525 120.399 120.454 120.212C120.383 120.024 120.274 119.854 120.134 119.712L108.589 108.008C108.324 107.739 108.175 107.374 108.175 106.994C108.175 106.614 108.324 106.25 108.589 105.981L111.66 102.868C111.925 102.599 112.285 102.448 112.659 102.448C113.034 102.448 113.394 102.599 113.659 102.868L127.212 116.608L129.211 114.581L125.379 110.707V103.293L128.621 106.58L130.62 104.553L125.379 99.2399V87.5267L145.172 107.593V132.207Z" fill="black"/>
<path d="M95.6896 105.567C99.5292 105.562 103.254 104.236 106.252 101.805C109.251 99.3741 111.347 95.9827 112.196 92.1864C113.045 88.3901 112.598 84.4139 110.926 80.9093C109.255 77.4047 106.46 74.5793 102.998 72.8961C99.5354 71.2129 95.6121 70.7715 91.8702 71.6444C88.1284 72.5173 84.7898 74.6526 82.4015 77.7006C80.0132 80.7486 78.7167 84.5285 78.7243 88.4212C78.732 92.3139 80.0434 96.0885 82.4438 99.1268C84.0327 101.14 86.0486 102.764 88.3417 103.879C90.6349 104.994 93.1464 105.571 95.6896 105.567ZM87.2408 89.8001C87.2992 91.5627 87.4954 93.3178 87.8275 95.049C86.5032 95.3751 85.2127 95.8287 83.9735 96.4035C82.6545 94.4382 81.8472 92.1667 81.6266 89.8001H87.2408ZM90.1136 101.523C88.5481 100.844 87.1168 99.8831 85.8892 98.6868C86.749 98.3391 87.6314 98.0517 88.5301 97.8268C88.9208 99.1148 89.4519 100.355 90.1136 101.523ZM91.3747 97.3008C94.2362 96.9056 97.1373 96.9056 99.9988 97.3008C98.8876 100.63 97.2448 102.7 95.6896 102.7C94.1344 102.7 92.4916 100.63 91.3747 97.3008ZM102.849 97.8254C103.748 98.0499 104.63 98.3372 105.49 98.6854C104.262 99.8807 102.831 100.84 101.266 101.518C101.927 100.351 102.458 99.1115 102.849 97.8254ZM101.266 75.2102C102.831 75.8894 104.262 76.8504 105.49 78.0468C104.63 78.3945 103.748 78.6818 102.849 78.9068C102.458 77.6188 101.927 76.3789 101.266 75.2102ZM100.004 79.4328C97.143 79.8279 94.2418 79.8279 91.3803 79.4328C92.4916 76.1032 94.1415 74.0334 95.6896 74.0334C97.2377 74.0334 98.8876 76.1032 100.004 79.4328ZM88.5301 78.9068C87.6313 78.6823 86.7489 78.3949 85.8892 78.0468C87.1171 76.8515 88.5483 75.8914 90.1136 75.2131C89.4523 76.381 88.9212 77.6198 88.5301 78.9068ZM90.6367 82.2192C92.3085 82.4845 93.9975 82.6229 95.6896 82.6334C97.3817 82.6233 99.0706 82.4853 100.742 82.2206C101.055 83.7737 101.244 85.3497 101.308 86.9335H90.0669C90.1322 85.3496 90.3227 83.7722 90.6367 82.2192ZM101.312 89.8001C101.248 91.3843 101.059 92.9608 100.747 94.5144C97.396 94.017 93.9917 94.017 90.6409 94.5144C90.3285 92.9608 90.1394 91.3843 90.0754 89.8001H101.312ZM107.404 96.4035C106.166 95.8282 104.876 95.3747 103.552 95.049C103.884 93.3178 104.08 91.5627 104.138 89.8001H109.753C109.532 92.1669 108.724 94.4386 107.404 96.4035ZM109.753 86.9335H104.138C104.08 85.1709 103.884 83.4157 103.552 81.6846C104.876 81.3584 106.166 80.9049 107.406 80.3301C108.725 82.2954 109.532 84.5669 109.753 86.9335ZM83.9749 80.3301C85.2137 80.9047 86.5037 81.3582 87.8275 81.6846C87.4954 83.4157 87.2992 85.1709 87.2408 86.9335H81.6266C81.847 84.5667 82.6549 82.295 83.9749 80.3301Z" fill="black"/>
<path d="M104.172 109.867H78.7241V112.733H104.172V109.867Z" fill="black"/>
<path d="M94.2759 117.033H78.7241V119.9H94.2759V117.033Z" fill="black"/>
<path d="M111.241 117.033H97.1034V119.9H111.241V117.033Z" fill="black"/>
<path d="M84.3793 122.767H78.7241C78.3492 122.767 77.9896 122.918 77.7244 123.186C77.4593 123.455 77.3103 123.82 77.3103 124.2V134.233H80.1379V131.367H84.3793C84.7543 131.367 85.1139 131.216 85.379 130.947C85.6442 130.678 85.7931 130.313 85.7931 129.933V124.2C85.7931 123.82 85.6442 123.455 85.379 123.186C85.1139 122.918 84.7543 122.767 84.3793 122.767ZM82.9655 128.5H80.1379V125.633H82.9655V128.5Z" fill="black"/>
<path d="M94.2759 122.767H88.6207C88.2457 122.767 87.8861 122.918 87.621 123.186C87.3558 123.455 87.2069 123.82 87.2069 124.2V134.233H90.0345V131.367H92.8621V134.233H95.6897V124.2C95.6897 123.82 95.5407 123.455 95.2756 123.186C95.0104 122.918 94.6508 122.767 94.2759 122.767ZM90.0345 128.5V125.633H92.8621V128.5H90.0345Z" fill="black"/>
<path d="M97.1034 124.2V128.5C97.1034 128.88 97.2524 129.245 97.5175 129.514C97.7827 129.782 98.1423 129.933 98.5172 129.933H101.345V131.367H97.1034V134.233H102.759C103.134 134.233 103.493 134.082 103.758 133.814C104.023 133.545 104.172 133.18 104.172 132.8V128.5C104.172 128.12 104.023 127.755 103.758 127.486C103.493 127.218 103.134 127.067 102.759 127.067H99.931V125.633H104.172V122.767H98.5172C98.1423 122.767 97.7827 122.918 97.5175 123.186C97.2524 123.455 97.1034 123.82 97.1034 124.2Z" fill="black"/>
<path d="M105.586 124.2V128.5C105.586 128.88 105.735 129.245 106 129.514C106.265 129.782 106.625 129.933 107 129.933H109.828V131.367H105.586V134.233H111.241C111.616 134.233 111.976 134.082 112.241 133.814C112.506 133.545 112.655 133.18 112.655 132.8V128.5C112.655 128.12 112.506 127.755 112.241 127.486C111.976 127.218 111.616 127.067 111.241 127.067H108.414V125.633H112.655V122.767H107C106.625 122.767 106.265 122.918 106 123.186C105.735 123.455 105.586 123.82 105.586 124.2Z" fill="black"/>
<path d="M73.069 71.1667H70.2414V134.233H73.069V71.1667Z" fill="black"/>
</svg>
