<svg width="528" height="470" viewBox="0 0 528 470" fill="none" xmlns="http://www.w3.org/2000/svg">
<path d="M527.69 468.603C527.69 468.775 409.551 468.924 263.856 468.924C118.118 468.924 0 468.775 0 468.603C0 468.432 118.118 468.283 263.856 468.283C409.551 468.283 527.69 468.432 527.69 468.603Z" fill="#1A2E35"/>
<path d="M377.032 469.074L218.029 468.347C198.903 468.261 183.478 452.686 183.563 433.559L185.253 34.934C185.339 15.8072 200.914 0.36023 220.04 0.445808L379.043 1.17323C398.169 1.25881 413.594 16.8341 413.509 35.9609L411.819 434.586C411.754 453.713 396.179 469.16 377.032 469.074Z" fill="#1A2E35"/>
<path d="M378.807 14.9514L347.978 14.8016C343.849 14.7802 340.468 18.2675 340.468 22.5893L340.447 28.1733C340.426 32.495 337.067 35.9823 332.938 35.9609L272.841 35.6828C268.712 35.6614 265.375 32.1527 265.396 27.8309L265.417 22.2469C265.439 17.9252 262.101 14.4165 257.972 14.3951L247.125 14.3523L220.147 14.224C206.754 14.1598 195.843 24.9855 195.779 38.3785L194.132 427.461C194.067 440.855 204.893 451.766 218.286 451.83L376.967 452.557C390.36 452.622 401.271 441.796 401.335 428.403L402.983 39.3199C403.025 25.9054 392.2 14.9942 378.807 14.9514Z" fill="#FAFAFA"/>
<path d="M386.017 57.7835C386.017 58.4039 385.504 58.9174 384.883 58.9174C384.263 58.9174 383.749 58.4039 383.749 57.7835C383.749 57.163 384.263 56.6495 384.883 56.6495C385.525 56.6495 386.017 57.163 386.017 57.7835Z" fill="#1A2E35"/>
<path d="M386.017 61.8698C386.017 62.4903 385.503 63.0038 384.883 63.0038C384.262 63.0038 383.749 62.4903 383.749 61.8698C383.749 61.2494 384.262 60.7359 384.883 60.7359C385.503 60.7359 386.017 61.2494 386.017 61.8698Z" fill="#1A2E35"/>
<path d="M385.996 65.9776C385.996 66.5981 385.482 67.1115 384.862 67.1115C384.241 67.1115 383.728 66.5981 383.728 65.9776C383.728 65.3572 384.241 64.8437 384.862 64.8437C385.482 64.8223 385.996 65.3358 385.996 65.9776Z" fill="#1A2E35"/>
<path d="M383.92 226.459H233.176C228.106 226.459 223.977 222.351 223.977 217.259V128.343C223.977 123.272 228.084 119.143 233.176 119.143H383.92C388.991 119.143 393.12 123.251 393.12 128.343V217.259C393.12 222.351 389.012 226.459 383.92 226.459Z" fill="#F5F5F5"/>
<path d="M379.278 219.506H228.534C223.463 219.506 219.334 215.376 219.334 210.306V121.39C219.334 116.319 223.442 112.19 228.534 112.19H379.278C384.348 112.19 388.477 116.319 388.477 121.39V210.306C388.477 215.376 384.37 219.506 379.278 219.506Z" fill="#E1E1E1"/>
<path d="M347.465 90.3889H345.86L345.56 91.1377H344.726L346.266 87.6504H347.058L348.62 91.1377H347.785L347.465 90.3889ZM347.208 89.7899L346.652 88.4634L346.095 89.7899H347.208Z" fill="#1A2E35"/>
<path d="M348.984 87.6718H350.567C351.701 87.6718 352.492 88.3564 352.492 89.4048C352.492 90.4531 351.701 91.1377 350.567 91.1377H348.984V87.6718ZM350.524 90.4745C351.209 90.4745 351.658 90.068 351.658 89.4048C351.658 88.7415 351.209 88.335 350.524 88.335H349.797V90.4959H350.524V90.4745Z" fill="#1A2E35"/>
<path d="M353.091 87.6718H354.674C355.808 87.6718 356.6 88.3564 356.6 89.4048C356.6 90.4531 355.808 91.1377 354.674 91.1377H353.091V87.6718ZM354.632 90.4745C355.316 90.4745 355.766 90.068 355.766 89.4048C355.766 88.7415 355.316 88.335 354.632 88.335H353.904V90.4959H354.632V90.4745Z" fill="#1A2E35"/>
<path d="M361.777 91.1377V89.041L360.751 90.7526H360.387L359.36 89.0838V91.1163H358.611V87.629H359.274L360.579 89.7899L361.863 87.629H362.526V91.1163H361.777V91.1377Z" fill="#1A2E35"/>
<path d="M363.147 89.4048C363.147 88.3778 363.96 87.6076 365.051 87.6076C366.142 87.6076 366.955 88.3778 366.955 89.4048C366.955 90.4317 366.142 91.2019 365.051 91.2019C363.938 91.2019 363.147 90.4317 363.147 89.4048ZM366.121 89.4048C366.121 88.7415 365.65 88.2922 365.029 88.2922C364.409 88.2922 363.938 88.7415 363.938 89.4048C363.938 90.068 364.409 90.5173 365.029 90.5173C365.671 90.5173 366.121 90.068 366.121 89.4048Z" fill="#1A2E35"/>
<path d="M369.779 91.1377L369.116 90.175H369.073H368.367V91.1377H367.554V87.6504H369.051C369.971 87.6504 370.57 88.1425 370.57 88.9127C370.57 89.4261 370.314 89.8112 369.864 90.0038L370.634 91.1163H369.779V91.1377ZM369.009 88.3136H368.345V89.5331H369.009C369.501 89.5331 369.757 89.2978 369.757 88.9341C369.757 88.549 369.501 88.3136 369.009 88.3136Z" fill="#1A2E35"/>
<path d="M373.908 90.4959V91.1377H371.212V87.6504H373.844V88.2922H372.025V89.041H373.63V89.6615H372.025V90.4745H373.908V90.4959Z" fill="#1A2E35"/>
<path d="M376.711 89.7043H375.855V90.5387H375.213V89.7043H374.357V89.1052H375.213V88.2708H375.855V89.1052H376.711V89.7043Z" fill="#1A2E35"/>
<path d="M213.75 62.6828C213.75 60.2866 215.59 58.5751 218.072 58.5751C219.441 58.5751 220.596 59.0671 221.345 59.9871L220.169 61.0782C219.634 60.4578 218.97 60.1583 218.179 60.1583C216.703 60.1583 215.633 61.2066 215.633 62.7042C215.633 64.2018 216.681 65.2502 218.179 65.2502C218.97 65.2502 219.634 64.9293 220.169 64.3088L221.345 65.3999C220.596 66.3199 219.441 66.812 218.072 66.812C215.59 66.7906 213.75 65.079 213.75 62.6828Z" fill="#1A2E35"/>
<path d="M227.785 63.1749V66.6622H226.138V65.892C225.817 66.4483 225.175 66.7478 224.276 66.7478C222.843 66.7478 221.987 65.9562 221.987 64.9079C221.987 63.8381 222.757 63.0893 224.597 63.0893H226.009C226.009 62.3191 225.56 61.8912 224.597 61.8912C223.956 61.8912 223.292 62.1052 222.843 62.4689L222.201 61.228C222.864 60.7573 223.849 60.5006 224.833 60.5006C226.715 60.4578 227.785 61.3136 227.785 63.1749ZM226.031 64.7153V64.0949H224.811C223.977 64.0949 223.72 64.3944 223.72 64.8009C223.72 65.2502 224.084 65.5283 224.726 65.5283C225.303 65.5497 225.817 65.2716 226.031 64.7153Z" fill="#1A2E35"/>
<path d="M233.176 60.4578V62.0838C233.027 62.0624 232.92 62.0624 232.77 62.0624C231.786 62.0624 231.144 62.5972 231.144 63.774V66.6622H229.368V60.5648H231.058V61.3778C231.508 60.7573 232.235 60.4578 233.176 60.4578Z" fill="#1A2E35"/>
<path d="M240.386 58.2327V66.6408H238.696V65.9348C238.247 66.4697 237.605 66.7264 236.792 66.7264C235.059 66.7264 233.733 65.5069 233.733 63.5814C233.733 61.6559 235.059 60.4364 236.792 60.4364C237.541 60.4364 238.183 60.6717 238.611 61.1638V58.2113H240.386V58.2327ZM238.653 63.6028C238.653 62.5545 237.969 61.9126 237.092 61.9126C236.214 61.9126 235.53 62.5545 235.53 63.6028C235.53 64.6511 236.214 65.293 237.092 65.293C237.969 65.293 238.653 64.6511 238.653 63.6028Z" fill="#1A2E35"/>
<path d="M241.434 66.0846L242.033 64.8223C242.568 65.1646 243.403 65.4213 244.151 65.4213C244.964 65.4213 245.285 65.2074 245.285 64.8651C245.285 63.8595 241.605 64.8865 241.605 62.4475C241.605 61.2922 242.654 60.4792 244.43 60.4792C245.264 60.4792 246.205 60.6717 246.783 61.014L246.184 62.2763C245.585 61.934 244.986 61.827 244.43 61.827C243.638 61.827 243.296 62.0838 243.296 62.3833C243.296 63.4316 246.975 62.4261 246.975 64.8223C246.975 65.9562 245.927 66.7692 244.087 66.7692C243.039 66.7478 241.991 66.4483 241.434 66.0846Z" fill="#1A2E35"/>
<path d="M284.116 319.526H282.062V318.028H288.053V319.526H285.999V324.724H284.095V319.526H284.116Z" fill="#1A2E35"/>
<path d="M288.31 321.366C288.31 319.354 289.893 317.878 292.032 317.878C294.172 317.878 295.755 319.354 295.755 321.366C295.755 323.377 294.172 324.853 292.032 324.853C289.893 324.853 288.31 323.377 288.31 321.366ZM293.851 321.366C293.851 320.21 293.059 319.461 292.032 319.461C291.027 319.461 290.214 320.21 290.214 321.366C290.214 322.521 291.005 323.291 292.032 323.291C293.059 323.291 293.851 322.542 293.851 321.366Z" fill="#1A2E35"/>
<path d="M298.087 319.526H296.033V318.028H302.023V319.526H299.969V324.724H298.065V319.526H298.087Z" fill="#1A2E35"/>
<path d="M306.88 323.419H304.056L303.521 324.724H301.595L304.548 318.028H306.409L309.383 324.724H307.415L306.88 323.419ZM306.324 322.029L305.468 319.889L304.612 322.029H306.324Z" fill="#1A2E35"/>
<path d="M309.896 318.028H311.8V323.227H314.988V324.724H309.896V318.028Z" fill="#1A2E35"/>
<path d="M268.755 350.484V352.559H267.857V350.505C266.081 350.419 264.433 349.756 263.535 348.858L264.048 347.831C264.883 348.644 266.316 349.264 267.835 349.35V344.6C265.845 344.108 263.834 343.509 263.834 341.113C263.834 339.38 265.075 337.882 267.835 337.668V335.593H268.734V337.647C270.082 337.711 271.451 338.096 272.392 338.759L271.943 339.829C270.937 339.187 269.782 338.845 268.734 338.781V343.573C270.766 344.065 272.927 344.643 272.927 347.06C272.948 348.815 271.622 350.312 268.755 350.484ZM267.857 343.338V338.824C265.995 338.995 265.161 339.936 265.161 341.07C265.161 342.461 266.38 342.953 267.857 343.338ZM271.622 347.125C271.622 345.691 270.296 345.221 268.755 344.835V349.35C270.745 349.2 271.622 348.28 271.622 347.125Z" fill="#1A2E35"/>
<path d="M282.939 337.754V350.377H281.634V338.909H278.661V337.754H282.939Z" fill="#1A2E35"/>
<path d="M295.669 346.868C295.669 349.114 293.765 350.505 290.77 350.505C287.732 350.505 285.892 349.114 285.892 346.868C285.892 345.349 286.748 344.279 288.331 343.766C287.047 343.252 286.341 342.311 286.341 340.984C286.341 338.93 288.095 337.647 290.77 337.647C293.444 337.647 295.22 338.93 295.22 340.984C295.22 342.311 294.492 343.252 293.209 343.766C294.792 344.301 295.669 345.37 295.669 346.868ZM294.343 346.847C294.343 345.285 293.016 344.322 290.77 344.322C288.523 344.322 287.218 345.306 287.218 346.847C287.218 348.408 288.545 349.392 290.77 349.392C292.995 349.392 294.343 348.43 294.343 346.847ZM290.77 343.295C292.738 343.295 293.915 342.418 293.915 341.049C293.915 339.615 292.674 338.759 290.77 338.759C288.866 338.759 287.646 339.615 287.646 341.027C287.646 342.418 288.801 343.295 290.77 343.295Z" fill="#1A2E35"/>
<path d="M297.466 344.087C297.466 340.064 299.584 337.668 302.494 337.668C305.425 337.668 307.543 340.064 307.543 344.087C307.543 348.109 305.404 350.505 302.494 350.505C299.584 350.505 297.466 348.109 297.466 344.087ZM306.217 344.087C306.217 340.706 304.698 338.845 302.494 338.845C300.29 338.845 298.771 340.706 298.771 344.087C298.771 347.467 300.29 349.328 302.494 349.328C304.698 349.307 306.217 347.446 306.217 344.087Z" fill="#1A2E35"/>
<path d="M321.834 349.243V350.398H312.977V349.478L318.219 344.343C319.652 342.931 319.909 342.097 319.909 341.22C319.909 339.765 318.882 338.866 316.956 338.866C315.48 338.866 314.346 339.316 313.512 340.278L312.592 339.487C313.576 338.331 315.138 337.69 317.063 337.69C319.631 337.69 321.256 338.995 321.256 341.091C321.256 342.311 320.871 343.381 319.181 345.049L314.881 349.264H321.834V349.243Z" fill="#1A2E35"/>
<path d="M323.396 344.087C323.396 340.064 325.514 337.668 328.424 337.668C331.355 337.668 333.473 340.064 333.473 344.087C333.473 348.109 331.334 350.505 328.424 350.505C325.493 350.505 323.396 348.109 323.396 344.087ZM332.146 344.087C332.146 340.706 330.628 338.845 328.424 338.845C326.22 338.845 324.701 340.706 324.701 344.087C324.701 347.467 326.22 349.328 328.424 349.328C330.628 349.307 332.146 347.446 332.146 344.087Z" fill="#1A2E35"/>
<path d="M369.222 412.207H240.408C231.315 412.207 223.955 404.847 223.955 395.755V386.213C223.955 377.12 231.315 369.76 240.408 369.76H369.222C378.315 369.76 385.675 377.12 385.675 386.213V395.755C385.675 404.847 378.315 412.207 369.222 412.207Z" fill="#0A3916"/>
<path d="M362.954 411.707H234.139C225.323 411.707 218.187 404.571 218.187 395.755V386.213C218.187 377.396 225.323 370.26 234.139 370.26H362.954C371.771 370.26 378.906 377.396 378.906 386.213V395.755C378.906 404.571 371.771 411.707 362.954 411.707Z" fill="#168933" stroke="#168933"/>
<path d="M293.679 388.651C293.679 390.834 292.096 392.16 289.486 392.16H287.004V395.198H285.571V385.164H289.486C292.096 385.164 293.679 386.491 293.679 388.651ZM292.246 388.651C292.246 387.218 291.283 386.405 289.443 386.405H287.004V390.898H289.443C291.283 390.919 292.246 390.085 292.246 388.651Z" fill="white"/>
<path d="M301.681 392.695H296.354L295.241 395.198H293.765L298.3 385.164H299.712L304.269 395.198H302.772L301.681 392.695ZM301.189 391.54L299.028 386.619L296.867 391.54H301.189Z" fill="white"/>
<path d="M309.019 391.732V395.198H307.607V391.69L303.628 385.143H305.168L308.377 390.427L311.608 385.143H313.02L309.019 391.732Z" fill="white"/>
<path d="M321.214 300.827C321.214 300.784 322.027 300.848 323.46 300.442C324.851 300.014 326.99 298.922 328.295 296.377C328.616 295.756 328.852 295.05 329.023 294.28C329.172 293.51 329.194 292.697 329.172 291.819C329.151 290.086 329.151 288.204 329.13 286.171C329.108 282.128 329.065 277.506 329.044 272.415C329.023 267.323 328.98 261.739 328.958 255.748C328.958 254.25 328.937 252.731 328.937 251.17C328.98 249.651 328.659 248.132 327.889 246.784C327.119 245.457 325.942 244.323 324.508 243.639C323.075 242.89 321.47 242.804 319.759 242.847C306.281 242.911 291.454 242.954 275.922 243.018C274.039 243.04 272.199 243.724 270.809 244.944C269.397 246.142 268.477 247.875 268.22 249.672C268.07 250.571 268.135 251.512 268.135 252.453C268.135 253.395 268.135 254.336 268.135 255.256C268.135 257.117 268.156 258.979 268.156 260.797C268.177 268.136 268.199 275.217 268.22 281.957C268.22 285.315 268.242 288.61 268.242 291.798C268.199 293.403 268.349 294.922 269.055 296.27C269.696 297.617 270.745 298.751 271.986 299.5C274.467 301.169 277.548 300.57 280.287 300.677C283.068 300.677 285.742 300.677 288.288 300.677C298.472 300.677 306.708 300.698 312.421 300.698C315.245 300.72 317.448 300.72 318.989 300.741C319.716 300.762 320.294 300.762 320.7 300.762C321.021 300.805 321.214 300.827 321.214 300.827C321.214 300.827 321.021 300.848 320.636 300.869C320.23 300.869 319.652 300.891 318.925 300.912C317.406 300.934 315.181 300.955 312.357 300.998C306.623 301.041 298.386 301.105 288.224 301.169C285.678 301.19 283.004 301.19 280.222 301.212C278.832 301.212 277.42 301.233 275.965 301.233C274.467 301.212 272.948 300.805 271.643 299.992C270.317 299.179 269.204 297.981 268.52 296.548C267.771 295.136 267.6 293.403 267.642 291.841C267.621 288.653 267.621 285.358 267.6 281.999C267.578 275.26 267.536 268.178 267.514 260.84C267.514 259 267.493 257.16 267.493 255.299C267.493 254.357 267.493 253.437 267.493 252.496C267.493 251.555 267.429 250.613 267.6 249.629C267.878 247.682 268.883 245.821 270.402 244.537C271.9 243.232 273.89 242.462 275.922 242.462C291.476 242.419 306.281 242.376 319.759 242.334C321.406 242.269 323.246 242.376 324.744 243.189C326.284 243.917 327.546 245.136 328.359 246.57C329.194 248.003 329.536 249.672 329.472 251.234C329.472 252.774 329.472 254.315 329.472 255.812C329.472 261.803 329.493 267.387 329.493 272.479C329.493 277.571 329.493 282.192 329.493 286.235C329.493 288.268 329.493 290.151 329.493 291.884C329.493 292.739 329.472 293.595 329.322 294.387C329.13 295.178 328.894 295.906 328.552 296.526C327.161 299.115 324.958 300.206 323.524 300.591C322.797 300.784 322.219 300.848 321.834 300.869C321.406 300.827 321.214 300.827 321.214 300.827Z" fill="#202020"/>
<path d="M308.869 280.502C308.869 280.502 308.72 280.523 308.463 280.523C308.163 280.523 307.778 280.545 307.265 280.545C306.195 280.566 304.719 280.587 302.858 280.609C299.092 280.651 293.915 280.694 288.074 280.737H287.946L287.924 280.609C287.817 279.838 287.689 279.004 287.561 278.17C286.534 271.002 285.635 264.606 285.036 260.434L285.122 260.519C283.453 260.519 282.127 260.498 281.185 260.498C280.736 260.498 280.394 260.476 280.137 260.476C279.902 260.476 279.773 260.455 279.773 260.455C279.773 260.455 279.902 260.434 280.137 260.434C280.394 260.434 280.736 260.412 281.185 260.412C282.127 260.391 283.453 260.369 285.122 260.348H285.207L285.229 260.434C285.849 264.606 286.791 271.003 287.86 278.148C287.989 278.983 288.096 279.817 288.224 280.587L288.096 280.459C293.936 280.438 299.114 280.438 302.879 280.416C304.719 280.416 306.217 280.438 307.286 280.438C307.778 280.438 308.185 280.459 308.484 280.459C308.72 280.48 308.848 280.502 308.869 280.502Z" fill="#202020"/>
<path d="M287.454 276.33C287.454 276.33 287.496 276.33 287.561 276.308C287.646 276.308 287.753 276.308 287.86 276.287C288.16 276.287 288.545 276.266 289.058 276.266C290.106 276.244 291.625 276.223 293.508 276.201C297.316 276.159 302.665 276.116 308.848 276.052L308.72 276.159C309.169 273.57 309.639 270.789 310.132 267.879C310.388 266.381 310.645 264.926 310.88 263.536L311.009 263.707C303.842 263.728 297.509 263.75 292.931 263.771C290.684 263.771 288.866 263.771 287.582 263.771C286.962 263.771 286.491 263.75 286.149 263.75C285.999 263.75 285.87 263.75 285.785 263.75C285.699 263.75 285.656 263.75 285.656 263.728C285.656 263.728 285.699 263.728 285.785 263.707C285.892 263.707 285.999 263.707 286.149 263.685C286.491 263.685 286.983 263.664 287.582 263.643C288.866 263.621 290.684 263.6 292.931 263.579C297.488 263.536 303.82 263.493 311.009 263.429H311.18L311.158 263.6C310.923 264.991 310.666 266.445 310.41 267.943C309.918 270.831 309.426 273.634 308.998 276.201L308.976 276.308H308.869C302.686 276.33 297.359 276.33 293.53 276.351C291.647 276.351 290.149 276.351 289.08 276.33C288.566 276.33 288.181 276.308 287.882 276.308C287.753 276.308 287.668 276.308 287.582 276.308C287.496 276.33 287.454 276.33 287.454 276.33Z" fill="#202020"/>
<path d="M293.316 286.235C293.294 286.235 293.294 286.043 293.187 285.743C293.102 285.444 292.888 284.995 292.417 284.674C291.968 284.331 291.24 284.16 290.556 284.417C289.871 284.652 289.272 285.401 289.293 286.257C289.293 287.113 289.893 287.84 290.577 288.075C291.283 288.332 291.989 288.14 292.438 287.797C292.888 287.455 293.102 287.027 293.187 286.706C293.273 286.428 293.273 286.235 293.316 286.235C293.337 286.235 293.358 286.428 293.316 286.749C293.251 287.07 293.059 287.562 292.567 287.968C292.096 288.354 291.305 288.61 290.492 288.332C289.7 288.075 289.015 287.241 289.015 286.278C288.994 285.294 289.679 284.46 290.47 284.203C291.262 283.925 292.075 284.139 292.545 284.524C293.037 284.909 293.23 285.401 293.294 285.722C293.358 286.043 293.316 286.235 293.316 286.235Z" fill="#202020"/>
<path d="M306.687 286.15C306.666 286.15 306.666 285.957 306.559 285.658C306.473 285.358 306.259 284.909 305.789 284.588C305.339 284.246 304.612 284.075 303.927 284.331C303.243 284.567 302.644 285.316 302.665 286.171C302.665 287.027 303.264 287.754 303.949 287.99C304.655 288.247 305.361 288.054 305.81 287.712C306.259 287.369 306.473 286.941 306.559 286.621C306.644 286.342 306.644 286.15 306.687 286.15C306.709 286.15 306.73 286.342 306.687 286.663C306.623 286.984 306.43 287.476 305.938 287.883C305.468 288.268 304.676 288.525 303.863 288.247C303.072 287.99 302.387 287.155 302.387 286.193C302.366 285.209 303.05 284.374 303.842 284.117C304.633 283.839 305.446 284.053 305.917 284.438C306.409 284.823 306.602 285.316 306.666 285.636C306.73 285.979 306.687 286.171 306.687 286.15Z" fill="#202020"/>
<path d="M315.758 261.46C315.78 264.734 313.148 267.408 309.853 267.43C306.58 267.451 303.906 264.819 303.884 261.525C303.863 258.251 306.494 255.577 309.789 255.556C313.084 255.556 315.737 258.187 315.758 261.46Z" fill="#202020"/>
<path d="M310.56 259.214L310.517 263.707H309.468L309.49 260.048H308.591V259.214H310.56Z" fill="white"/>
<path d="M373.908 213.708H223.164C218.093 213.708 213.964 209.578 213.964 204.508V115.592C213.964 110.521 218.072 106.392 223.164 106.392H373.908C378.978 106.392 383.107 110.5 383.107 115.592V204.508C383.107 209.578 379 213.708 373.908 213.708Z" fill="#07060B"/>
<path d="M241.819 130.91C241.819 132.28 240.728 133.071 238.653 133.071H234.545V125.134H238.418C240.407 125.134 241.413 125.968 241.413 127.188C241.413 127.979 241.006 128.6 240.365 128.942C241.263 129.22 241.819 129.905 241.819 130.91ZM236.364 126.524V128.386H238.182C239.081 128.386 239.573 128.065 239.573 127.444C239.573 126.824 239.081 126.524 238.182 126.524H236.364ZM239.98 130.718C239.98 130.055 239.466 129.734 238.525 129.734H236.385V131.702H238.525C239.466 131.702 239.98 131.402 239.98 130.718Z" fill="white"/>
<path d="M248.452 131.381H244.772L244.066 133.093H242.183L245.713 125.155H247.532L251.083 133.093H249.158L248.452 131.381ZM247.874 129.969L246.612 126.931L245.349 129.969H247.874Z" fill="white"/>
<path d="M259.17 125.134V133.071H257.651L253.693 128.257V133.071H251.875V125.134H253.394L257.33 129.948V125.134H259.17Z" fill="white"/>
<path d="M263.941 129.948L262.872 131.06V133.071H261.053V125.134H262.872V128.835L266.38 125.134H268.413L265.118 128.664L268.605 133.071H266.466L263.941 129.948Z" fill="white"/>
<path d="M240.343 163.922H238.888V165.848H238.14V163.922H234.032V163.387L237.904 158.552H238.739L235.016 163.259H238.182V161.569H238.91V163.259H240.365V163.922H240.343Z" fill="white"/>
<path d="M245.692 163.751C245.692 164.971 244.815 165.912 243.039 165.912C241.991 165.912 240.985 165.548 240.407 164.971L240.771 164.372C241.242 164.864 242.076 165.206 243.039 165.206C244.237 165.206 244.922 164.65 244.922 163.73C244.922 162.853 244.301 162.275 242.953 162.275H242.44V161.719L244.451 159.194H240.728V158.552H245.414V159.087L243.36 161.676C244.9 161.761 245.692 162.574 245.692 163.751Z" fill="white"/>
<path d="M251.575 163.687C251.575 164.928 250.719 165.891 248.922 165.891C247.874 165.891 246.869 165.527 246.312 164.949L246.676 164.35C247.147 164.842 247.981 165.185 248.922 165.185C250.163 165.185 250.826 164.586 250.826 163.687C250.826 162.746 250.249 162.168 248.388 162.168H246.826L247.211 158.509H251.19V159.173H247.853L247.596 161.505H248.537C250.741 161.547 251.575 162.403 251.575 163.687Z" fill="white"/>
<path d="M258.015 163.666C258.015 165.035 256.946 165.912 255.534 165.912C253.608 165.912 252.538 164.564 252.538 162.275C252.538 159.793 253.886 158.509 255.876 158.509C256.539 158.509 257.138 158.616 257.609 158.895L257.309 159.494C256.946 159.237 256.432 159.151 255.897 159.151C254.335 159.151 253.309 160.157 253.309 162.147C253.309 162.318 253.309 162.532 253.33 162.746C253.694 161.954 254.549 161.505 255.555 161.505C256.988 161.483 258.015 162.339 258.015 163.666ZM257.266 163.687C257.266 162.724 256.56 162.125 255.427 162.125C254.314 162.125 253.544 162.81 253.544 163.708C253.544 164.5 254.207 165.27 255.469 165.27C256.539 165.27 257.266 164.65 257.266 163.687Z" fill="white"/>
<path d="M273.761 165.848L272.028 163.559L270.274 165.848H269.44L271.601 163.045L269.547 160.371H270.381L272.028 162.51L273.676 160.371H274.489L272.435 163.045L274.617 165.848H273.761Z" fill="white"/>
<path d="M279.324 165.848L277.591 163.559L275.837 165.848H275.002L277.163 163.045L275.109 160.371H275.944L277.591 162.51L279.238 160.371H280.051L277.997 163.045L280.18 165.848H279.324Z" fill="white"/>
<path d="M284.865 165.848L283.132 163.559L281.378 165.848H280.543L282.704 163.045L280.65 160.371H281.485L283.132 162.51L284.779 160.371H285.592L283.538 163.045L285.721 165.848H284.865Z" fill="white"/>
<path d="M290.427 165.848L288.694 163.559L286.94 165.848H286.106L288.267 163.045L286.213 160.371H287.047L288.694 162.51L290.342 160.371H291.155L289.101 163.045L291.283 165.848H290.427Z" fill="white"/>
<path d="M309.64 165.848L307.907 163.559L306.152 165.848H305.318L307.479 163.045L305.425 160.371H306.259L307.907 162.51L309.554 160.371H310.367L308.313 163.045L310.495 165.848H309.64Z" fill="white"/>
<path d="M315.181 165.848L313.448 163.559L311.693 165.848H310.859L313.02 163.045L310.966 160.371H311.8L313.448 162.51L315.095 160.371H315.908L313.854 163.045L316.036 165.848H315.181Z" fill="white"/>
<path d="M320.743 165.848L319.01 163.559L317.256 165.848H316.421L318.582 163.045L316.528 160.371H317.363L319.01 162.51L320.657 160.371H321.47L319.417 163.045L321.599 165.848H320.743Z" fill="white"/>
<path d="M326.306 165.848L324.573 163.559L322.818 165.848H321.984L324.145 163.045L322.091 160.371H322.925L324.573 162.51L326.22 160.371H327.033L324.979 163.045L327.161 165.848H326.306Z" fill="white"/>
<path d="M343.549 158.552V165.848H342.801V159.215H341.089V158.552H343.549Z" fill="white"/>
<path d="M350.117 163.751C350.117 164.971 349.24 165.912 347.464 165.912C346.416 165.912 345.411 165.548 344.833 164.971L345.197 164.372C345.667 164.864 346.502 165.206 347.464 165.206C348.663 165.206 349.347 164.65 349.347 163.73C349.347 162.853 348.727 162.275 347.379 162.275H346.865V161.719L348.877 159.194H345.154V158.552H349.839V159.087L347.785 161.676C349.326 161.761 350.117 162.574 350.117 163.751Z" fill="white"/>
<path d="M357.349 163.922H355.894V165.848H355.145V163.922H351.037V163.387L354.91 158.552H355.744L352.022 163.259H355.188V161.569H355.915V163.259H357.37V163.922H357.349Z" fill="white"/>
<path d="M362.975 165.185V165.848H357.862V165.313L360.9 162.339C361.713 161.526 361.884 161.034 361.884 160.542C361.884 159.708 361.285 159.173 360.173 159.173C359.317 159.173 358.654 159.429 358.183 159.986L357.648 159.536C358.204 158.873 359.124 158.488 360.237 158.488C361.713 158.488 362.654 159.237 362.654 160.456C362.654 161.162 362.441 161.783 361.456 162.746L358.975 165.185H362.975Z" fill="white"/>
<path d="M230.267 180.974C230.267 179.925 231.08 179.177 232.149 179.177C232.748 179.177 233.262 179.391 233.583 179.797L233.069 180.268C232.834 179.99 232.534 179.861 232.192 179.861C231.55 179.861 231.08 180.311 231.08 180.974C231.08 181.637 231.55 182.086 232.192 182.086C232.534 182.086 232.834 181.937 233.069 181.68L233.583 182.151C233.262 182.557 232.748 182.771 232.149 182.771C231.08 182.771 230.267 182.022 230.267 180.974Z" fill="white"/>
<path d="M236.364 181.958H234.76L234.46 182.707H233.626L235.166 179.219H235.958L237.519 182.707H236.685L236.364 181.958ZM236.107 181.359L235.551 180.032L234.995 181.359H236.107Z" fill="white"/>
<path d="M240.087 182.707L239.424 181.744H239.381H238.675V182.707H237.862V179.219H239.359C240.279 179.219 240.878 179.712 240.878 180.482C240.878 180.995 240.622 181.38 240.172 181.573L240.943 182.685H240.087V182.707ZM239.338 179.883H238.675V181.102H239.338C239.83 181.102 240.087 180.867 240.087 180.503C240.087 180.118 239.83 179.883 239.338 179.883Z" fill="white"/>
<path d="M241.263 182.364L241.542 181.765C241.841 181.979 242.269 182.129 242.697 182.129C243.168 182.129 243.36 181.979 243.36 181.765C243.36 181.124 241.349 181.551 241.349 180.268C241.349 179.669 241.82 179.177 242.804 179.177C243.232 179.177 243.681 179.284 244.002 179.476L243.745 180.097C243.424 179.904 243.082 179.819 242.782 179.819C242.312 179.819 242.119 179.99 242.119 180.225C242.119 180.867 244.152 180.418 244.152 181.701C244.152 182.279 243.66 182.771 242.675 182.771C242.119 182.771 241.563 182.6 241.263 182.364Z" fill="white"/>
<path d="M249.308 179.241V182.728H248.495V181.295H246.911V182.728H246.098V179.241H246.911V180.61H248.495V179.241H249.308Z" fill="white"/>
<path d="M249.928 180.974C249.928 179.947 250.741 179.177 251.832 179.177C252.923 179.177 253.736 179.947 253.736 180.974C253.736 182.022 252.923 182.771 251.832 182.771C250.72 182.771 249.928 182.001 249.928 180.974ZM252.902 180.974C252.902 180.311 252.431 179.861 251.811 179.861C251.19 179.861 250.72 180.311 250.72 180.974C250.72 181.637 251.19 182.086 251.811 182.086C252.453 182.086 252.902 181.637 252.902 180.974Z" fill="white"/>
<path d="M254.335 179.241H255.148V182.065H256.903V182.728H254.357V179.241H254.335Z" fill="white"/>
<path d="M257.352 179.241H258.935C260.069 179.241 260.86 179.925 260.86 180.974C260.86 182.022 260.09 182.707 258.935 182.707H257.352V179.241ZM258.892 182.044C259.577 182.044 260.026 181.637 260.026 180.974C260.026 180.311 259.577 179.904 258.892 179.904H258.165V182.065H258.892V182.044Z" fill="white"/>
<path d="M264.155 182.065V182.707H261.459V179.219H264.091V179.861H262.272V180.61H263.877V181.231H262.272V182.044H264.155V182.065Z" fill="white"/>
<path d="M267.001 182.707L266.338 181.744H266.295H265.589V182.707H264.776V179.219H266.273C267.193 179.219 267.792 179.712 267.792 180.482C267.792 180.995 267.536 181.38 267.086 181.573L267.857 182.685H267.001V182.707ZM266.252 179.883H265.589V181.102H266.252C266.744 181.102 267.001 180.867 267.001 180.503C267.001 180.118 266.744 179.883 266.252 179.883Z" fill="white"/>
<path d="M229.924 194.559L230.78 193.532C231.144 194.025 231.55 194.26 232.021 194.26C232.641 194.26 232.962 193.896 232.962 193.147V189.96H230.609V188.719H234.503V193.062C234.503 194.709 233.668 195.522 232.085 195.522C231.208 195.544 230.416 195.201 229.924 194.559Z" fill="white"/>
<path d="M235.508 194.559C235.508 194.003 235.915 193.639 236.428 193.639C236.942 193.639 237.348 194.003 237.348 194.559C237.348 195.116 236.942 195.501 236.428 195.501C235.915 195.501 235.508 195.116 235.508 194.559Z" fill="white"/>
<path d="M248.238 188.719L246.055 195.415H244.387L242.91 190.88L241.392 195.415H239.744L237.541 188.719H239.145L240.664 193.426L242.247 188.719H243.681L245.221 193.468L246.783 188.719H248.238Z" fill="white"/>
<path d="M248.901 188.719C248.901 188.248 249.265 187.884 249.821 187.884C250.377 187.884 250.741 188.227 250.741 188.697C250.741 189.189 250.377 189.553 249.821 189.553C249.286 189.553 248.901 189.189 248.901 188.719ZM249.094 190.281H250.591V195.437H249.094V190.281Z" fill="white"/>
<path d="M251.96 188.312H253.458V195.415H251.96V188.312Z" fill="white"/>
<path d="M254.849 188.312H256.346V195.415H254.849V188.312Z" fill="white"/>
<path d="M257.544 188.719C257.544 188.248 257.908 187.884 258.464 187.884C259.02 187.884 259.384 188.227 259.384 188.697C259.384 189.189 259.02 189.553 258.464 189.553C257.908 189.553 257.544 189.189 257.544 188.719ZM257.715 190.281H259.213V195.437H257.715V190.281Z" fill="white"/>
<path d="M265.161 192.484V195.415H263.77V194.773C263.492 195.244 262.957 195.501 262.208 195.501C261.01 195.501 260.283 194.838 260.283 193.939C260.283 193.019 260.925 192.399 262.486 192.399H263.684C263.684 191.757 263.299 191.393 262.486 191.393C261.951 191.393 261.374 191.564 261.01 191.864L260.475 190.815C261.032 190.409 261.866 190.195 262.7 190.195C264.241 190.195 265.161 190.922 265.161 192.484ZM263.663 193.789V193.254H262.636C261.93 193.254 261.716 193.511 261.716 193.853C261.716 194.217 262.037 194.474 262.551 194.474C263.064 194.495 263.492 194.26 263.663 193.789Z" fill="white"/>
<path d="M275.195 192.484V195.437H273.697V192.719C273.697 191.885 273.333 191.5 272.713 191.5C272.05 191.5 271.579 191.928 271.579 192.848V195.437H270.081V192.719C270.081 191.885 269.718 191.5 269.097 191.5C268.434 191.5 267.963 191.928 267.963 192.848V195.437H266.466V190.281H267.899V190.88C268.284 190.43 268.862 190.216 269.525 190.216C270.253 190.216 270.852 190.494 271.215 191.051C271.622 190.516 272.306 190.216 273.077 190.216C274.318 190.195 275.195 190.901 275.195 192.484Z" fill="white"/>
<path d="M276.029 194.945L276.521 193.875C276.97 194.174 277.676 194.367 278.318 194.367C279.003 194.367 279.26 194.196 279.26 193.896C279.26 193.062 276.157 193.918 276.157 191.864C276.157 190.88 277.035 190.195 278.532 190.195C279.238 190.195 280.03 190.366 280.522 190.644L280.03 191.714C279.516 191.436 279.024 191.329 278.554 191.329C277.89 191.329 277.591 191.543 277.591 191.8C277.591 192.677 280.693 191.821 280.693 193.853C280.693 194.816 279.794 195.479 278.254 195.479C277.398 195.501 276.521 195.265 276.029 194.945Z" fill="white"/>
<path d="M336.104 192.27C336.104 190.067 337.324 188.804 338.971 188.804C340.618 188.804 341.838 190.067 341.838 192.27C341.838 194.474 340.618 195.736 338.971 195.736C337.324 195.736 336.104 194.495 336.104 192.27ZM340.276 192.27C340.276 190.751 339.741 190.109 338.971 190.109C338.201 190.109 337.666 190.751 337.666 192.27C337.666 193.789 338.201 194.431 338.971 194.431C339.741 194.431 340.276 193.789 340.276 192.27Z" fill="white"/>
<path d="M348.128 193.511C348.128 194.88 347.015 195.736 345.582 195.736C343.742 195.736 342.587 194.581 342.587 192.42C342.587 190.109 343.977 188.804 346.01 188.804C346.716 188.804 347.4 188.975 347.871 189.254L347.293 190.387C346.93 190.131 346.48 190.045 346.031 190.045C344.919 190.045 344.191 190.708 344.148 191.992C344.534 191.607 345.111 191.393 345.796 191.393C347.122 191.414 348.128 192.249 348.128 193.511ZM346.63 193.597C346.63 192.976 346.181 192.591 345.496 192.591C344.812 192.591 344.341 193.019 344.341 193.597C344.341 194.174 344.769 194.602 345.518 194.602C346.16 194.581 346.63 194.196 346.63 193.597Z" fill="white"/>
<path d="M351.251 187.563H352.578L349.411 196.571H348.085L351.251 187.563Z" fill="white"/>
<path d="M357.541 194.367V195.629H352.471V194.624L355.06 192.185C355.659 191.628 355.766 191.265 355.766 190.944C355.766 190.409 355.402 190.109 354.696 190.109C354.118 190.109 353.626 190.323 353.305 190.773L352.171 190.045C352.685 189.296 353.626 188.804 354.824 188.804C356.322 188.804 357.306 189.574 357.306 190.794C357.306 191.436 357.113 192.035 356.194 192.912L354.653 194.367H357.541Z" fill="white"/>
<path d="M364.216 194.217H363.125V195.629H361.606V194.217H357.991V193.169L361.157 188.911H362.783L359.852 192.933H361.649V191.671H363.104V192.933H364.195V194.217H364.216Z" fill="white"/>
<g opacity="0.2">
<path d="M336.147 136.238C334.97 131.338 330.157 128.279 325.129 128.6C323.567 128.707 322.027 129.049 320.658 129.648C317.17 131.21 314.753 135.318 315.908 138.976C316.849 141.95 319.738 143.833 322.604 145.095C325.6 146.4 329.108 147.256 332.061 145.865C334.906 144.517 336.553 141.244 336.425 138.099C336.382 137.479 336.297 136.858 336.147 136.238Z" fill="white"/>
</g>
<g opacity="0.2">
<path d="M377.502 106.392H219.57C216.467 106.392 213.964 108.895 213.964 111.997V140.324C223.955 147.277 237.648 148.497 249.8 145.972C264.134 142.977 277.12 135.639 290.47 129.648C303.82 123.636 318.497 118.822 332.917 121.283C346.545 123.615 358.14 132.108 370.463 138.377C374.443 140.41 378.722 142.185 383.107 143.469V111.997C383.107 108.917 380.604 106.392 377.502 106.392Z" fill="white"/>
</g>
</svg>
