<svg width="12" height="22" viewBox="0 0 12 22" fill="none" xmlns="http://www.w3.org/2000/svg">
<path d="M3.57831 12.6729C3.50224 12.6729 1.82864 12.6729 1.06791 12.6729C0.662188 12.6729 0.5354 12.5169 0.5354 12.1271C0.5354 11.0875 0.5354 10.022 0.5354 8.98242C0.5354 8.5666 0.687546 8.43665 1.06791 8.43665H3.57831C3.57831 8.35869 3.57831 6.85132 3.57831 6.14961C3.57831 5.11004 3.75581 4.12246 4.26296 3.21284C4.79547 2.27723 5.5562 1.65349 6.51979 1.28964C7.15373 1.05574 7.78767 0.951782 8.47232 0.951782H10.9574C11.3124 0.951782 11.4645 1.10772 11.4645 1.47156V4.43433C11.4645 4.79817 11.3124 4.95411 10.9574 4.95411C10.2727 4.95411 9.58805 4.95411 8.9034 4.9801C8.21875 4.9801 7.86374 5.31796 7.86374 6.04565C7.83838 6.82533 7.86374 7.57901 7.86374 8.38467H10.8052C11.2109 8.38467 11.3631 8.54061 11.3631 8.95644V12.1011C11.3631 12.5169 11.2363 12.6469 10.8052 12.6469C9.89235 12.6469 7.93981 12.6469 7.86374 12.6469V21.1193C7.86374 21.5612 7.73695 21.7171 7.28052 21.7171C6.2155 21.7171 5.17584 21.7171 4.11082 21.7171C3.73045 21.7171 3.57831 21.5612 3.57831 21.1713C3.57831 18.4425 3.57831 12.7508 3.57831 12.6729Z" fill="white"/>
</svg>
