<svg width="78" height="31" viewBox="0 0 78 31" fill="none" xmlns="http://www.w3.org/2000/svg">
<rect opacity="0.35" x="45.5534" y="13.5241" width="13.1986" height="6.59931" rx="2.08978" stroke="black" stroke-width="0.549943"/>
<path opacity="0.4" d="M59.5769 15.8785V18.1198C60.0195 17.9299 60.3072 17.4884 60.3072 16.9991C60.3072 16.5099 60.0195 16.0683 59.5769 15.8785Z" fill="black"/>
<rect x="46.3783" y="14.349" width="11.5488" height="4.94948" rx="1.37486" fill="black"/>
<path fill-rule="evenodd" clip-rule="evenodd" d="M36.6281 14.9562C37.9959 14.9562 39.3113 15.4633 40.3026 16.3727C40.3772 16.4429 40.4966 16.442 40.5701 16.3707L41.2836 15.6758C41.3209 15.6397 41.3416 15.5907 41.3413 15.5397C41.341 15.4887 41.3196 15.44 41.282 15.4043C38.6802 12.9984 34.5756 12.9984 31.9738 15.4043C31.9361 15.44 31.9147 15.4887 31.9144 15.5397C31.914 15.5906 31.9347 15.6396 31.9719 15.6758L32.6857 16.3707C32.7592 16.4421 32.8786 16.443 32.9532 16.3727C33.9446 15.4633 35.2602 14.9562 36.6281 14.9562ZM36.6262 17.2771C37.3727 17.277 38.0925 17.5585 38.6458 18.0667C38.7206 18.1388 38.8385 18.1373 38.9115 18.0632L39.6194 17.3376C39.6567 17.2996 39.6774 17.2479 39.6769 17.1943C39.6763 17.1406 39.6546 17.0895 39.6166 17.0522C37.9316 15.4624 35.3223 15.4624 33.6374 17.0522C33.5993 17.0895 33.5776 17.1407 33.5771 17.1943C33.5766 17.248 33.5973 17.2996 33.6347 17.3376L34.3424 18.0632C34.4154 18.1373 34.5333 18.1388 34.6081 18.0667C35.1611 17.5588 35.8803 17.2774 36.6262 17.2771ZM38.0145 18.8134C38.0156 18.8713 37.9952 18.9272 37.9582 18.9678L36.7612 20.3177C36.7261 20.3574 36.6782 20.3797 36.6283 20.3797C36.5784 20.3797 36.5306 20.3574 36.4955 20.3177L35.2982 18.9678C35.2612 18.9272 35.2409 18.8713 35.242 18.8133C35.2431 18.7554 35.2655 18.7005 35.304 18.6617C36.0685 17.9391 37.1881 17.9391 37.9526 18.6617C37.9911 18.7006 38.0135 18.7555 38.0145 18.8134Z" fill="black"/>
<path fill-rule="evenodd" clip-rule="evenodd" d="M27.7902 14.1742C27.7902 13.826 27.5276 13.5438 27.2036 13.5438H26.617C26.293 13.5438 26.0304 13.826 26.0304 14.1742V19.6373C26.0304 19.9854 26.293 20.2676 26.617 20.2676H27.2036C27.5276 20.2676 27.7902 19.9854 27.7902 19.6373V14.1742ZM23.7019 14.8886H24.2885C24.6125 14.8886 24.8751 15.1776 24.8751 15.5341V19.6222C24.8751 19.9786 24.6125 20.2676 24.2885 20.2676H23.7019C23.3779 20.2676 23.1153 19.9786 23.1153 19.6222V15.5341C23.1153 15.1776 23.3779 14.8886 23.7019 14.8886ZM21.3197 16.3454H20.7331C20.4091 16.3454 20.1464 16.6381 20.1464 16.9991V19.6139C20.1464 19.975 20.4091 20.2676 20.7331 20.2676H21.3197C21.6436 20.2676 21.9063 19.975 21.9063 19.6139V16.9991C21.9063 16.6381 21.6436 16.3454 21.3197 16.3454ZM18.4045 17.6902H17.8179C17.494 17.6902 17.2313 17.9787 17.2313 18.3345V19.6233C17.2313 19.9791 17.494 20.2676 17.8179 20.2676H18.4045C18.7285 20.2676 18.9911 19.9791 18.9911 19.6233V18.3345C18.9911 17.9787 18.7285 17.6902 18.4045 17.6902Z" fill="black"/>
</svg>
