<svg width="78" height="31" viewBox="0 0 78 31" fill="none" xmlns="http://www.w3.org/2000/svg">
<rect opacity="0.35" x="45.5534" y="13.3726" width="13.1986" height="6.59931" rx="2.08978" stroke="black" stroke-width="0.549943"/>
<path opacity="0.4" d="M59.5769 15.7269V17.9682C60.0195 17.7784 60.3072 17.3368 60.3072 16.8476C60.3072 16.3583 60.0195 15.9168 59.5769 15.7269" fill="black"/>
<rect x="46.3783" y="14.1975" width="11.5488" height="4.94948" rx="1.37486" fill="black"/>
<path fill-rule="evenodd" clip-rule="evenodd" d="M36.6281 14.8046C37.9959 14.8047 39.3113 15.3118 40.3026 16.2211C40.3772 16.2913 40.4966 16.2904 40.5701 16.2191L41.2836 15.5243C41.3209 15.4881 41.3416 15.4391 41.3413 15.3882C41.341 15.3372 41.3196 15.2884 41.282 15.2527C38.6802 12.8469 34.5756 12.8469 31.9738 15.2527C31.9361 15.2884 31.9147 15.3372 31.9144 15.3881C31.914 15.4391 31.9347 15.4881 31.9719 15.5243L32.6857 16.2191C32.7592 16.2905 32.8786 16.2914 32.9532 16.2211C33.9446 15.3117 35.2602 14.8046 36.6281 14.8046ZM36.6262 17.1255C37.3727 17.1255 38.0925 17.4069 38.6458 17.9151C38.7206 17.9873 38.8385 17.9857 38.9115 17.9116L39.6194 17.1861C39.6567 17.148 39.6774 17.0964 39.6769 17.0427C39.6763 16.9891 39.6546 16.9379 39.6166 16.9006C37.9316 15.3108 35.3223 15.3108 33.6374 16.9006C33.5993 16.9379 33.5776 16.9891 33.5771 17.0428C33.5766 17.0965 33.5973 17.1481 33.6347 17.1861L34.3424 17.9116C34.4154 17.9857 34.5333 17.9873 34.6081 17.9151C35.1611 17.4073 35.8803 17.1259 36.6262 17.1255ZM38.0145 18.6618C38.0156 18.7198 37.9952 18.7756 37.9582 18.8162L36.7612 20.1662C36.7261 20.2059 36.6782 20.2282 36.6283 20.2282C36.5784 20.2282 36.5306 20.2059 36.4955 20.1662L35.2982 18.8162C35.2612 18.7756 35.2409 18.7197 35.242 18.6618C35.2431 18.6039 35.2655 18.549 35.304 18.5102C36.0685 17.7876 37.1881 17.7876 37.9526 18.5102C37.9911 18.549 38.0135 18.6039 38.0145 18.6618Z" fill="black"/>
<path fill-rule="evenodd" clip-rule="evenodd" d="M27.7902 14.0226C27.7902 13.6745 27.5276 13.3923 27.2036 13.3923H26.617C26.293 13.3923 26.0304 13.6745 26.0304 14.0226V19.4857C26.0304 19.8339 26.293 20.1161 26.617 20.1161H27.2036C27.5276 20.1161 27.7902 19.8339 27.7902 19.4857V14.0226ZM23.7019 14.737H24.2885C24.6125 14.737 24.8751 15.026 24.8751 15.3825V19.4706C24.8751 19.8271 24.6125 20.1161 24.2885 20.1161H23.7019C23.3779 20.1161 23.1153 19.8271 23.1153 19.4706V15.3825C23.1153 15.026 23.3779 14.737 23.7019 14.737ZM21.3197 16.1939H20.7331C20.4091 16.1939 20.1464 16.4865 20.1464 16.8476V19.4624C20.1464 19.8234 20.4091 20.1161 20.7331 20.1161H21.3197C21.6436 20.1161 21.9063 19.8234 21.9063 19.4624V16.8476C21.9063 16.4865 21.6436 16.1939 21.3197 16.1939ZM18.4045 17.5386H17.8179C17.494 17.5386 17.2313 17.8271 17.2313 18.183V19.4717C17.2313 19.8276 17.494 20.1161 17.8179 20.1161H18.4045C18.7285 20.1161 18.9911 19.8276 18.9911 19.4717V18.183C18.9911 17.8271 18.7285 17.5386 18.4045 17.5386Z" fill="black"/>
</svg>
