<svg width="22" height="22" viewBox="0 0 22 22" fill="none" xmlns="http://www.w3.org/2000/svg">
<g clip-path="url(#clip0_37_35)">
<path fill-rule="evenodd" clip-rule="evenodd" d="M18.3087 17.1044L15.6047 14.4004L13.8207 16.7629L13.1725 16.507L13.1684 16.5054L13.1603 16.5022L13.1327 16.491C13.1092 16.4815 13.0759 16.4678 13.0337 16.4501C12.9494 16.4146 12.8291 16.363 12.6806 16.296C12.3839 16.1623 11.9717 15.9666 11.5049 15.7162C10.5842 15.2225 9.39592 14.4876 8.47106 13.5627C7.54621 12.6379 6.81119 11.4495 6.31742 10.5288C6.06704 10.0619 5.87128 9.64973 5.73756 9.35302C5.6706 9.20444 5.61893 9.0842 5.58348 8.99982C5.56575 8.95761 5.55206 8.92432 5.54252 8.90089L5.53135 8.87323L5.52812 8.86515L5.52674 8.86168L5.27058 8.21283L7.63309 6.42883L4.92912 3.72486C4.39296 4.601 3.70317 6.09095 3.69876 7.9435C3.69419 9.86468 4.42565 12.2959 7.08175 14.952C9.73786 17.6081 12.1691 18.3395 14.0902 18.3349C15.9427 18.3305 17.4326 17.6406 18.3087 17.1044ZM7.50988 8.81919L8.73789 7.89188C9.6263 7.22102 9.71664 5.91966 8.92945 5.13246L6.14636 2.34937C5.4226 1.62562 4.11634 1.58999 3.4714 2.5984C2.81864 3.61904 1.87121 5.51254 1.86543 7.93914C1.85958 10.3988 2.82202 13.285 5.78538 16.2484C8.74876 19.2118 11.635 20.1742 14.0946 20.1682C16.5212 20.1624 18.4146 19.2149 19.4352 18.5621C20.4436 17.9171 20.4079 16.6109 19.6842 15.8872L16.901 13.1041C16.1139 12.3169 14.8125 12.4072 14.1416 13.2956L13.2143 14.5237C12.9772 14.4126 12.6881 14.2704 12.3713 14.1005C11.513 13.6403 10.5064 13.0053 9.76742 12.2663C9.02847 11.5274 8.39343 10.5207 7.93308 9.66231C7.76317 9.34549 7.621 9.05636 7.50988 8.81919Z" fill="white"/>
</g>
<defs>
<clipPath id="clip0_37_35">
<rect width="22" height="22" fill="white"/>
</clipPath>
</defs>
</svg>
