<svg width="23" height="22" viewBox="0 0 23 22" fill="none" xmlns="http://www.w3.org/2000/svg">
<g clip-path="url(#clip0_37_516)">
<path fill-rule="evenodd" clip-rule="evenodd" d="M18.8087 17.1044L16.1047 14.4004L14.3207 16.7629L13.6725 16.5071L13.6684 16.5054L13.6603 16.5022L13.6327 16.491C13.6092 16.4815 13.5759 16.4678 13.5337 16.4501C13.4494 16.4146 13.3291 16.363 13.1806 16.296C12.8839 16.1623 12.4717 15.9666 12.0049 15.7162C11.0842 15.2225 9.89592 14.4876 8.97106 13.5627C8.04621 12.6379 7.31119 11.4495 6.81742 10.5288C6.56704 10.0619 6.37128 9.64974 6.23756 9.35304C6.1706 9.20446 6.11893 9.08422 6.08348 8.99983C6.06575 8.95762 6.05206 8.92433 6.04252 8.9009L6.03135 8.87324L6.02812 8.86516L6.02674 8.86169L5.77058 8.21284L8.13309 6.42884L5.42912 3.72487C4.89296 4.60102 4.20317 6.09096 4.19876 7.94352C4.19419 9.86469 4.92565 12.2959 7.58175 14.952C10.2379 17.6081 12.6691 18.3396 14.5902 18.3349C16.4427 18.3305 17.9326 17.6406 18.8087 17.1044ZM8.00988 8.81921L9.23789 7.8919C10.1263 7.22103 10.2166 5.91967 9.42945 5.13248L6.64636 2.34938C5.9226 1.62563 4.61634 1.59 3.9714 2.59841C3.31864 3.61906 2.37121 5.51255 2.36543 7.93916C2.35958 10.3988 3.32202 13.285 6.28538 16.2484C9.24876 19.2118 12.135 20.1742 14.5946 20.1683C17.0212 20.1624 18.9146 19.2149 19.9352 18.5621C20.9436 17.9171 20.9079 16.6109 20.1842 15.8872L17.401 13.1041C16.6139 12.3169 15.3125 12.4072 14.6416 13.2956L13.7143 14.5237C13.4772 14.4126 13.1881 14.2704 12.8713 14.1006C12.013 13.6403 11.0064 13.0053 10.2674 12.2664C9.52847 11.5274 8.89343 10.5207 8.43308 9.66232C8.26317 9.3455 8.121 9.05637 8.00988 8.81921Z" fill="#202020"/>
</g>
<defs>
<clipPath id="clip0_37_516">
<rect width="22" height="22" fill="white" transform="translate(0.5)"/>
</clipPath>
</defs>
</svg>
