<svg width="24" height="23" viewBox="0 0 24 23" fill="none" xmlns="http://www.w3.org/2000/svg">
<path fill-rule="evenodd" clip-rule="evenodd" d="M17.1652 4.00134C16.2769 3.05119 14.7184 2.16218 12 2.16218C9.28159 2.16218 7.72311 3.05119 6.83478 4.00134C5.8986 5.00268 5.53125 6.25869 5.53125 7.20725C5.53125 9.13489 6.58674 11.7933 8.16766 14.5701C9.43331 16.7932 10.8978 18.8591 12 20.315C13.1022 18.8591 14.5667 16.7932 15.8323 14.5701C17.4133 11.7933 18.4688 9.13489 18.4688 7.20725C18.4688 6.25869 18.1014 5.00268 17.1652 4.00134ZM20.625 7.20725C20.625 4.32435 18.4688 0 12 0C5.53125 0 3.375 4.32435 3.375 7.20725C3.375 12.2749 8.63937 19.5421 10.9425 22.4789C11.4874 23.1737 12.5126 23.1737 13.0575 22.4789C15.3606 19.5421 20.625 12.2749 20.625 7.20725Z" fill="#202020"/>
<path fill-rule="evenodd" clip-rule="evenodd" d="M16.3125 8.6487C16.3125 11.037 14.3817 12.9731 12 12.9731C9.61827 12.9731 7.6875 11.037 7.6875 8.6487C7.6875 6.26043 9.61827 4.32435 12 4.32435C14.3817 4.32435 16.3125 6.26043 16.3125 8.6487ZM12 10.8109C13.1909 10.8109 14.1562 9.84284 14.1562 8.6487C14.1562 7.45457 13.1909 6.48653 12 6.48653C10.8091 6.48653 9.84375 7.45457 9.84375 8.6487C9.84375 9.84284 10.8091 10.8109 12 10.8109Z" fill="#202020"/>
</svg>
