<svg width="15" height="16" viewBox="0 0 15 16" fill="none" xmlns="http://www.w3.org/2000/svg">
<path fill-rule="evenodd" clip-rule="evenodd" d="M9.24032 10.6243C7.2788 12.1509 4.44149 12.0127 2.63854 10.2097C0.685917 8.25711 0.685917 5.09128 2.63854 3.13866C4.59116 1.18604 7.75698 1.18604 9.70961 3.13866C11.5126 4.94161 11.6508 7.77891 10.1242 9.74043L12.8032 12.4194C13.0473 12.6635 13.0473 13.0593 12.8032 13.3033C12.5591 13.5474 12.1634 13.5474 11.9193 13.3033L9.24032 10.6243ZM3.52242 9.32584C4.98689 10.7903 7.36126 10.7903 8.82572 9.32584C10.2902 7.86138 10.2902 5.48701 8.82572 4.02254C7.36126 2.55808 4.98689 2.55808 3.52242 4.02254C2.05796 5.48701 2.05796 7.86138 3.52242 9.32584Z" fill="#616161"/>
</svg>
